<?xml version="1.0" standalone="no"?>
<!DOCTYPE svg PUBLIC "-//W3C//DTD SVG 20010904//EN"
 "http://www.w3.org/TR/2001/REC-SVG-20010904/DTD/svg10.dtd">
<svg version="1.0" xmlns="http://www.w3.org/2000/svg"
 width="3444.000000pt" height="3444.000000pt" viewBox="0 0 3444.000000 3444.000000"
 preserveAspectRatio="xMidYMid meet">
<metadata>
Created by potrace 1.11, written by Peter Selinger 2001-2013
</metadata>
<g transform="translate(0.000000,3444.000000) scale(0.100000,-0.100000)"
fill="#000000" stroke="none">
<path d="M5000 27928 c-65 -44 -64 -40 -67 -492 -2 -443 -3 -441 53 -485 54
-42 150 -18 176 43 19 48 10 784 -11 862 -22 80 -90 113 -151 72z"/>
<path d="M17489 27905 c-2 -2 -114 -6 -249 -10 -339 -11 -358 -11 -420 -18
-30 -4 -93 -9 -140 -11 -73 -4 -313 -29 -390 -40 -14 -2 -70 -9 -125 -15 -168
-20 -416 -56 -660 -97 -179 -30 -195 -33 -203 -38 -5 -3 -35 -10 -68 -15 -32
-6 -90 -18 -129 -26 -38 -9 -93 -20 -122 -25 -28 -4 -56 -11 -61 -14 -5 -3
-51 -15 -103 -26 -229 -52 -298 -71 -679 -191 -216 -67 -517 -179 -634 -235
-16 -8 -33 -14 -38 -14 -7 0 -127 -52 -245 -106 -28 -13 -54 -24 -57 -24 -9 0
-440 -215 -468 -234 -18 -12 -37 -16 -53 -12 -28 7 -210 -80 -392 -188 -105
-62 -272 -159 -343 -199 -233 -131 -404 -249 -641 -442 -41 -33 -92 -73 -114
-89 -22 -17 -76 -62 -120 -101 -44 -39 -96 -84 -115 -99 -34 -28 -98 -85 -252
-227 -43 -40 -156 -132 -250 -206 -95 -74 -211 -173 -256 -221 -172 -179 -429
-478 -556 -647 -37 -49 -82 -108 -99 -129 -29 -35 -89 -118 -135 -186 -9 -14
-35 -50 -57 -80 -22 -30 -42 -59 -45 -65 -5 -9 -96 -149 -239 -365 -31 -46
-65 -102 -76 -122 -11 -21 -48 -83 -82 -137 -35 -54 -66 -107 -69 -117 -4 -11
-16 -32 -27 -47 -11 -16 -35 -58 -55 -95 -19 -37 -47 -85 -61 -107 -46 -71
-321 -619 -321 -640 0 -2 -13 -33 -29 -67 -16 -35 -48 -112 -71 -173 -23 -60
-47 -119 -52 -131 -18 -38 -95 -264 -145 -424 -34 -106 -42 -134 -78 -270 -14
-52 -29 -102 -32 -110 -4 -8 -7 -19 -8 -25 -2 -14 -13 -66 -37 -165 -11 -47
-24 -105 -28 -130 -5 -25 -18 -87 -30 -137 -11 -51 -25 -121 -30 -155 -6 -35
-15 -85 -19 -113 -17 -97 -42 -271 -47 -320 -2 -27 -6 -63 -9 -80 -8 -49 -13
-96 -20 -170 -4 -38 -8 -83 -10 -100 -2 -16 -6 -59 -10 -93 -20 -179 -44 -662
-47 -927 -3 -316 7 -729 23 -980 6 -82 12 -181 14 -220 2 -38 8 -124 14 -190
16 -182 17 -181 -21 -194 -18 -7 -57 -37 -85 -68 -29 -32 -53 -51 -53 -43 0 8
14 29 32 47 18 18 26 33 18 33 -7 0 -28 -16 -47 -35 l-34 -35 7 -183 c6 -164
-3 -335 -22 -443 l-6 -32 -48 13 c-27 7 -52 15 -57 18 -11 6 -150 21 -190 20
-18 -1 -46 -11 -62 -22 -16 -12 -51 -25 -78 -30 -57 -11 -68 -15 -158 -51 -38
-15 -108 -42 -155 -60 -123 -46 -150 -59 -150 -74 0 -7 -12 -19 -27 -27 -16
-7 -60 -33 -100 -56 -39 -24 -74 -43 -77 -43 -16 0 -270 -180 -372 -264 -136
-113 -409 -386 -492 -494 -32 -40 -77 -99 -101 -130 -51 -67 -181 -263 -181
-273 0 -4 -19 -40 -43 -81 -74 -126 -152 -308 -188 -438 -7 -25 -16 -49 -20
-55 -4 -5 -14 -44 -23 -85 -9 -41 -21 -93 -26 -115 -20 -81 -60 -305 -60 -339
0 -19 -4 -45 -9 -58 -24 -65 -33 -625 -12 -823 14 -129 14 -132 45 -328 4 -21
20 -88 37 -150 17 -62 31 -119 33 -127 1 -8 5 -22 9 -30 3 -8 20 -69 36 -135
16 -66 36 -140 45 -165 9 -25 16 -54 16 -65 0 -12 4 -25 9 -30 6 -6 29 -55 51
-110 105 -252 246 -527 329 -639 21 -28 43 -62 50 -75 7 -13 46 -67 85 -120
40 -53 108 -143 151 -201 88 -118 230 -269 320 -338 33 -25 65 -52 70 -58 6
-6 53 -40 105 -74 52 -34 107 -71 122 -81 27 -19 102 -64 166 -101 90 -51 349
-176 467 -225 33 -14 89 -40 125 -58 58 -30 114 -56 215 -100 46 -20 134 -43
195 -51 30 -3 66 -10 78 -15 37 -14 284 -59 412 -75 164 -21 490 -25 625 -8
263 33 482 105 680 226 73 44 68 44 142 -5 37 -25 129 -103 203 -172 105 -99
174 -153 310 -243 96 -64 245 -168 330 -232 200 -150 349 -251 495 -335 155
-89 502 -269 675 -348 58 -27 123 -58 145 -69 22 -11 85 -38 140 -60 55 -22
118 -48 140 -57 22 -10 56 -24 75 -31 19 -7 53 -20 75 -30 22 -10 83 -32 135
-49 95 -32 113 -39 160 -59 14 -6 45 -16 70 -22 25 -6 54 -15 65 -20 47 -23
467 -142 653 -185 56 -13 107 -27 113 -31 6 -3 36 -10 67 -14 32 -4 111 -19
177 -33 249 -54 347 -73 440 -87 44 -6 127 -20 185 -30 108 -19 273 -41 440
-60 52 -6 124 -15 160 -20 36 -5 128 -16 205 -25 212 -24 202 -21 224 -63 39
-76 54 -266 30 -369 -30 -130 -54 -213 -61 -213 -5 0 -8 -5 -8 -10 0 -6 -15
-35 -34 -64 -24 -38 -58 -70 -117 -112 -46 -32 -86 -61 -89 -64 -3 -4 -40 -32
-83 -64 l-78 -57 -61 7 c-61 7 -74 15 -110 67 -36 51 -151 36 -264 -36 -22
-13 -70 -44 -109 -68 -38 -24 -92 -60 -120 -80 -27 -20 -57 -39 -66 -42 -18
-6 -234 -151 -262 -175 -10 -9 -34 -25 -52 -37 -94 -56 -245 -164 -280 -201
-22 -22 -53 -67 -69 -98 -34 -67 -41 -71 -261 -145 -216 -72 -325 -110 -360
-125 -44 -20 -160 -61 -163 -58 -1 1 -19 -5 -40 -14 -40 -17 -85 -34 -322
-117 -85 -30 -220 -78 -300 -107 -80 -29 -167 -59 -195 -67 -27 -9 -63 -22
-80 -29 -16 -7 -50 -19 -75 -27 -25 -9 -103 -36 -175 -62 -181 -65 -230 -82
-480 -164 -121 -40 -227 -76 -235 -81 -9 -4 -31 -11 -50 -15 -44 -8 -102 -27
-115 -36 -5 -4 -28 -10 -50 -14 -22 -4 -44 -11 -50 -15 -5 -4 -37 -15 -70 -24
-33 -10 -112 -34 -175 -53 -63 -19 -144 -43 -180 -54 -170 -49 -277 -81 -295
-89 -46 -21 -110 -31 -231 -36 -71 -3 -142 -7 -159 -8 -166 -16 -224 -20 -244
-18 -14 2 -70 -1 -125 -7 -56 -6 -130 -13 -165 -16 -124 -10 -200 -66 -238
-172 -12 -34 -17 -84 -18 -173 -1 -69 -5 -139 -9 -156 -4 -19 -30 -53 -65 -87
-56 -53 -91 -118 -91 -168 0 -10 -16 -73 -36 -141 -19 -68 -42 -148 -49 -178
-19 -76 -69 -264 -88 -330 -37 -125 -76 -268 -85 -310 -6 -25 -22 -90 -37
-145 -15 -55 -37 -140 -50 -190 -13 -49 -31 -117 -40 -150 -9 -33 -18 -69 -20
-80 -7 -36 -26 -109 -35 -130 -4 -11 -20 -67 -34 -125 -14 -58 -46 -181 -71
-275 -25 -93 -55 -206 -66 -250 -10 -44 -23 -91 -28 -105 -5 -14 -19 -63 -31
-110 -45 -174 -82 -305 -90 -320 -4 -9 -11 -36 -15 -60 -4 -25 -11 -49 -15
-55 -4 -5 -11 -26 -15 -45 -3 -19 -12 -55 -20 -80 -67 -226 -93 -315 -126
-430 -11 -41 -24 -84 -29 -95 -5 -11 -11 -32 -14 -48 l-6 -27 10564 0 10565 0
-14 38 c-7 20 -25 61 -39 89 -14 29 -26 57 -26 62 0 5 -9 26 -19 48 -11 21
-28 56 -37 78 -9 22 -34 77 -56 123 -21 45 -38 87 -38 93 0 6 -9 28 -20 48
-21 40 -80 169 -80 176 0 5 -17 42 -111 243 -22 45 -39 84 -39 86 0 4 -35 83
-88 196 -14 30 -37 82 -52 115 -15 33 -44 95 -64 137 -20 42 -36 82 -36 88 0
5 -4 10 -10 10 -5 0 -10 5 -10 12 0 12 -10 33 -155 333 -48 99 -94 198 -103
220 -8 22 -21 47 -29 56 -7 8 -13 19 -13 24 0 7 -126 268 -240 495 -96 192
-243 474 -300 574 -12 22 -34 63 -48 90 -14 28 -33 62 -42 76 -10 14 -40 63
-67 110 l-50 85 8 85 c5 46 17 107 26 135 20 59 22 182 4 267 -15 72 -76 167
-127 198 -36 23 -49 24 -184 25 -156 0 -462 -12 -520 -21 -25 -4 -46 0 -70 14
-19 12 -107 44 -195 72 -88 28 -183 60 -210 70 -28 11 -55 20 -60 20 -5 0 -32
9 -60 19 -27 11 -108 38 -180 60 -71 23 -164 52 -205 65 -41 14 -95 32 -120
40 -25 8 -103 32 -175 54 -112 35 -166 51 -340 103 -40 11 -216 54 -285 68
-188 39 -173 33 -197 76 -13 22 -26 47 -29 55 -23 49 -181 230 -202 230 -4 0
-21 12 -37 28 -16 15 -39 32 -52 39 -12 6 -35 18 -50 27 -71 38 -200 84 -253
89 -20 2 -41 7 -48 11 -7 4 -21 5 -31 1 -11 -3 -22 -2 -24 2 -6 9 -194 0 -218
-11 -12 -5 -30 10 -69 59 -89 112 -242 230 -382 295 -143 66 -330 91 -503 68
-143 -19 -329 -96 -468 -194 -52 -37 -89 -38 -107 -3 -6 10 -29 24 -53 31 -23
6 -62 29 -87 51 -24 21 -96 64 -160 95 -117 58 -149 72 -255 112 -106 39 -159
62 -205 88 -25 14 -99 53 -165 87 -121 64 -241 129 -305 167 -237 141 -299
159 -415 119 -58 -21 -60 -21 -85 -3 -14 10 -61 38 -105 61 -44 24 -85 49 -91
57 -6 8 -15 14 -19 14 -11 0 -125 72 -125 80 0 4 -12 13 -27 21 -31 15 -133
91 -173 127 -14 13 -37 31 -52 40 -38 22 -45 65 -42 262 4 291 14 382 54 488
l18 47 123 7 c132 7 221 18 414 49 66 11 145 24 175 29 30 4 98 17 150 28 52
11 124 25 160 32 130 24 255 52 272 61 10 5 29 9 42 9 14 0 37 5 53 11 15 5
59 17 98 25 38 8 77 17 85 21 8 4 42 12 75 19 118 24 459 130 870 271 39 13
90 33 115 45 25 11 81 33 125 48 44 16 114 44 155 63 41 19 118 53 170 77 91
40 519 251 550 270 17 11 211 120 285 160 28 15 109 63 180 107 72 44 171 105
220 135 50 31 108 61 130 68 48 16 112 49 141 73 11 10 61 46 111 80 51 34
131 96 178 137 47 41 129 112 182 158 96 84 135 107 160 98 8 -3 25 1 38 10
29 19 51 17 185 -17 89 -23 111 -24 365 -22 249 1 291 4 540 37 350 47 430 60
488 80 26 9 53 16 59 16 6 0 38 12 72 26 86 37 92 39 181 68 44 14 116 39 160
56 44 18 89 34 100 37 11 3 25 9 30 14 6 4 44 21 85 37 347 139 746 360 1022
567 67 50 135 100 153 112 39 26 322 308 380 377 22 27 45 54 50 60 49 55 245
334 245 350 0 2 24 46 53 98 28 51 74 140 101 198 26 58 59 127 72 154 13 28
24 56 24 63 0 7 11 37 25 67 14 30 25 63 25 73 0 11 4 23 9 28 15 18 98 306
107 375 6 43 44 232 48 239 3 4 7 32 10 62 3 29 11 95 17 144 16 135 17 151
24 265 21 323 9 619 -38 985 -11 80 -59 302 -80 365 -8 25 -20 70 -27 100 -7
30 -16 60 -19 65 -4 6 -13 28 -20 50 -7 22 -17 51 -23 65 -11 26 -27 65 -48
115 -7 17 -16 38 -21 47 -5 10 -9 24 -9 32 0 8 -3 16 -8 18 -4 2 -19 26 -33
53 -68 133 -115 215 -152 269 -15 23 -39 58 -53 79 -135 206 -383 476 -589
643 -44 36 -89 72 -100 81 -11 9 -33 26 -50 37 -16 12 -55 40 -85 62 -31 23
-73 51 -95 63 -22 12 -56 31 -75 43 -19 11 -74 41 -122 65 -49 25 -88 48 -88
53 0 25 -216 160 -256 160 -21 0 -26 18 -11 42 8 13 19 43 25 68 6 25 27 109
47 187 19 78 38 161 41 185 4 24 11 48 16 55 5 7 7 17 3 22 -3 6 -1 28 4 48
15 56 31 167 37 263 3 47 7 91 10 99 3 8 7 51 10 95 3 45 7 87 10 94 16 48 24
927 10 1113 -3 46 -8 113 -11 149 -3 36 -7 99 -10 140 -6 81 -9 112 -25 265
-5 55 -12 125 -14 155 -3 30 -10 91 -16 135 -6 44 -15 116 -21 160 -14 103
-15 108 -28 185 -7 36 -14 85 -17 110 -3 25 -9 59 -14 75 -4 17 -20 93 -35
170 -25 137 -87 410 -105 470 -5 17 -18 66 -29 110 -11 44 -30 112 -41 150
-11 39 -27 93 -35 120 -8 28 -32 106 -54 174 -23 68 -41 128 -41 133 0 5 -14
46 -31 91 -135 351 -137 355 -376 802 -332 619 -526 945 -810 1363 -134 196
-349 495 -411 569 -154 185 -401 437 -632 643 -63 57 -138 124 -166 149 -28
25 -86 73 -129 106 -43 33 -85 67 -94 76 -25 22 -180 140 -223 169 -21 14 -38
28 -38 32 0 3 -21 20 -47 37 -70 45 -145 97 -259 179 -56 39 -104 72 -108 72
-4 0 -39 22 -79 48 -40 27 -100 66 -134 88 -34 21 -83 53 -108 69 -66 42 -103
64 -160 93 -27 14 -52 29 -55 33 -3 3 -21 14 -40 24 -19 9 -48 27 -65 40 -16
12 -70 44 -120 70 -49 26 -103 55 -120 65 -81 47 -312 166 -440 225 -33 16
-67 34 -75 40 -8 6 -35 19 -60 29 -25 10 -63 26 -85 36 -81 36 -181 82 -230
105 -61 28 -153 66 -355 145 -85 33 -164 64 -175 69 -52 22 -84 34 -125 48
-25 8 -79 27 -120 43 -87 33 -358 121 -445 145 -33 9 -74 23 -91 31 -34 15
-484 133 -624 163 -47 10 -108 26 -137 34 -28 8 -54 13 -56 10 -3 -2 -15 0
-26 7 -12 6 -49 15 -84 20 -77 11 -166 26 -232 40 -146 29 -444 68 -630 84
-115 9 -200 17 -230 22 -16 2 -163 6 -325 9 -162 3 -307 8 -321 10 -15 2 -28
2 -30 0z m742 -1624 c3 0 11 -12 17 -25 13 -28 5 -36 -93 -80 l-60 -28 30 -12
c19 -8 38 -10 53 -5 31 12 28 3 -5 -14 -77 -39 -220 -121 -233 -133 -12 -12
-12 -16 2 -30 15 -15 24 -14 115 15 129 41 252 70 258 61 3 -5 -1 -11 -7 -14
-7 -3 0 -4 15 -1 156 30 651 54 737 36 30 -7 95 -14 145 -18 105 -6 268 -41
200 -42 -53 -1 -426 -41 -435 -46 -4 -3 -63 -16 -131 -31 -133 -28 -145 -32
-132 -45 4 -4 45 -2 91 6 214 38 573 50 617 21 13 -9 33 -16 44 -16 37 0 71
-18 65 -35 -3 -8 -12 -15 -19 -15 -17 0 -27 -28 -13 -36 7 -4 14 -2 16 4 7 23
21 12 16 -13 -4 -20 0 -25 17 -25 17 0 19 -3 10 -14 -10 -11 0 -14 56 -18 38
-3 72 -2 77 3 5 4 21 -1 36 -11 19 -13 53 -21 109 -26 69 -6 81 -10 81 -25 0
-12 5 -16 15 -13 9 4 15 0 15 -8 0 -8 12 -15 27 -16 14 -1 28 -4 31 -7 3 -2
-74 -3 -169 0 -232 5 -355 7 -408 6 -84 -2 -32 -13 103 -22 75 -5 148 -11 163
-13 16 -2 84 -10 153 -17 210 -20 629 -96 711 -127 13 -6 49 -15 79 -22 104
-23 129 -32 123 -46 -3 -8 2 -17 11 -20 9 -3 16 -12 16 -19 0 -15 35 -29 49
-20 5 3 12 1 16 -5 3 -5 13 -10 22 -10 9 0 25 -8 36 -17 11 -10 17 -12 13 -5
-8 14 10 17 19 2 3 -5 1 -10 -4 -10 -6 0 -11 -7 -11 -16 0 -8 4 -12 10 -9 5 3
20 -1 31 -9 21 -14 20 -15 -17 -18 l-39 -3 22 -22 c20 -20 20 -23 6 -31 -24
-14 1 -24 30 -13 19 7 28 6 37 -4 18 -21 79 -36 101 -25 12 7 27 6 46 -1 15
-7 44 -11 63 -11 32 1 33 0 12 -8 -13 -6 -22 -15 -20 -22 4 -12 66 -33 143
-48 48 -9 47 -9 -20 -5 -306 19 -555 16 -555 -6 0 -5 42 -9 93 -10 141 0 366
-22 467 -45 14 -3 54 -11 90 -16 36 -6 58 -14 49 -17 -19 -7 -11 -38 15 -60
18 -15 21 -31 6 -31 -16 0 -52 40 -47 53 2 7 0 20 -5 30 -10 20 -40 24 -32 3
3 -8 -3 -16 -16 -19 -19 -5 -20 -8 -9 -20 12 -12 15 -12 26 2 10 14 13 9 23
-32 7 -27 21 -52 31 -58 11 -5 19 -6 19 -2 0 4 5 2 12 -5 7 -7 20 -12 29 -12
10 0 19 -6 22 -12 2 -7 8 -9 13 -5 5 5 1 14 -9 21 -9 7 -17 19 -17 27 0 9 3
10 8 3 10 -15 42 -25 42 -13 0 6 7 6 20 -1 12 -6 30 -9 40 -6 11 4 30 9 41 12
16 5 19 3 13 -7 -4 -7 9 -3 28 9 23 14 39 19 43 12 3 -5 13 -10 21 -10 10 0 9
5 -6 20 -11 11 -28 20 -38 20 -10 0 -19 7 -19 15 0 9 7 13 16 11 9 -3 36 -10
61 -16 75 -17 226 -68 205 -69 -35 -2 -63 -41 -30 -41 8 0 15 -5 15 -11 0 -6
-9 -8 -20 -4 -11 3 -28 2 -37 -4 -15 -9 -12 -10 16 -11 19 0 32 -3 29 -6 -3
-3 -86 2 -184 10 -428 36 -622 49 -638 43 -11 -4 -16 -15 -14 -29 3 -21 9 -23
99 -30 147 -10 437 -76 623 -140 83 -29 87 -32 65 -44 -27 -14 -21 -18 46 -29
22 -4 93 -36 159 -73 87 -48 139 -70 196 -83 118 -25 164 -49 407 -208 90 -58
393 -271 393 -275 0 -6 -144 15 -205 29 -76 17 -194 54 -210 65 -5 4 -28 13
-50 20 -22 7 -44 16 -50 20 -5 4 -40 19 -78 33 -72 29 -112 34 -123 16 -7 -12
15 -59 28 -59 29 0 172 -78 325 -177 202 -130 568 -472 898 -838 50 -54 106
-114 125 -132 19 -18 30 -33 25 -33 -6 0 -29 18 -50 41 -113 116 -446 327
-445 283 0 -5 17 -20 38 -33 214 -137 564 -483 846 -836 27 -33 65 -80 85
-104 20 -24 44 -57 54 -73 10 -16 22 -35 27 -41 68 -85 99 -127 96 -127 -3 0
-38 25 -78 55 -40 30 -76 55 -80 55 -19 0 -4 -26 33 -58 73 -63 234 -259 267
-324 59 -120 112 -239 112 -252 0 -8 7 -19 15 -26 8 -7 15 -20 15 -29 1 -20
20 -46 40 -54 12 -4 11 -6 -2 -6 -24 -1 -23 -13 1 -28 11 -7 27 -29 36 -50 9
-21 21 -45 26 -53 5 -8 13 -25 19 -38 5 -12 16 -25 25 -28 8 -3 17 -21 21 -39
3 -18 17 -43 30 -56 13 -12 24 -31 24 -41 0 -10 4 -18 9 -18 5 0 11 -13 14
-30 4 -16 15 -37 26 -46 11 -9 17 -23 14 -30 -3 -8 1 -14 10 -14 8 0 18 -12
23 -27 4 -16 8 -30 9 -33 1 -3 11 -22 24 -42 12 -20 21 -39 19 -41 -2 -2 2
-10 9 -18 6 -8 21 -48 32 -89 11 -40 26 -77 32 -80 6 -4 9 -17 7 -30 -2 -16
-24 18 -76 121 -40 79 -87 169 -105 201 -34 59 -85 123 -93 115 -3 -2 16 -47
41 -98 26 -52 51 -103 55 -114 5 -11 24 -54 43 -95 55 -120 157 -402 195 -538
l21 -73 -36 31 c-19 17 -37 29 -40 26 -2 -2 20 -47 51 -99 31 -52 56 -98 56
-102 0 -4 8 -19 19 -33 10 -15 28 -58 39 -97 22 -73 23 -98 2 -43 -17 43 -156
323 -182 365 -11 18 -17 37 -13 42 3 5 -1 13 -9 18 -8 4 -29 28 -46 51 -17 24
-33 42 -35 40 -2 -1 23 -57 56 -123 33 -65 80 -171 105 -235 25 -63 58 -146
74 -185 50 -127 184 -536 220 -673 6 -24 14 -51 17 -60 4 -11 3 -14 -4 -7 -5
6 -18 33 -28 60 -27 76 -124 257 -152 285 l-25 25 7 -25 c4 -14 19 -52 35 -85
15 -33 53 -139 85 -235 32 -96 60 -182 63 -190 3 -8 6 -19 8 -25 2 -5 14 -45
28 -87 13 -43 21 -77 18 -77 -21 3 -42 -2 -42 -11 0 -6 4 -9 9 -8 5 2 17 -6
26 -17 14 -17 16 -18 11 -2 -3 11 -2 16 4 12 14 -9 12 -24 -4 -40 -10 -10 -16
-11 -25 -2 -8 8 -11 8 -11 -2 0 -18 26 -41 47 -41 15 0 16 2 3 10 -11 7 -12
12 -3 21 9 9 14 2 22 -27 6 -21 8 -40 6 -43 -3 -2 -5 1 -5 7 0 7 -4 12 -10 12
-5 0 -6 -7 -3 -17 4 -11 3 -14 -5 -9 -6 4 -21 -3 -34 -16 -12 -12 -17 -23 -11
-25 6 -2 9 -12 6 -22 -3 -13 2 -20 19 -25 18 -5 20 -8 9 -15 -12 -8 -12 -12
-2 -25 7 -9 17 -13 22 -10 5 3 18 0 29 -6 20 -11 21 -9 15 27 -6 45 8 17 18
-34 6 -31 4 -33 -21 -35 -15 0 -36 0 -47 1 -19 2 -19 0 3 -21 19 -20 24 -21
33 -8 8 11 12 12 16 3 7 -19 23 -16 23 5 1 34 28 -47 58 -174 29 -124 69 -430
58 -442 -3 -3 -6 1 -6 8 0 8 -8 23 -19 34 -10 12 -30 41 -43 66 -14 25 -40 70
-58 100 -19 30 -40 65 -47 78 -11 17 -22 23 -43 20 -18 -2 -40 6 -60 21 -17
12 -34 20 -37 17 -3 -3 4 -44 16 -90 32 -128 31 -129 -50 -56 -66 61 -107 82
-179 91 -30 4 -118 21 -195 37 -146 32 -213 42 -297 46 -39 2 -53 7 -62 23 -6
11 -32 44 -58 74 l-48 53 -40 -41 c-22 -23 -40 -45 -40 -49 0 -3 -11 -18 -25
-32 -14 -15 -25 -31 -25 -35 1 -5 -10 -17 -24 -28 -15 -11 -23 -26 -19 -34 3
-9 -1 -15 -11 -15 -23 0 -20 -42 6 -93 24 -47 35 -98 44 -207 9 -110 10 -122
17 -150 4 -14 9 -47 11 -75 3 -27 12 -111 21 -185 9 -74 17 -162 20 -195 2
-34 6 -76 9 -95 4 -19 9 -64 12 -100 7 -92 12 -165 19 -240 5 -65 15 -320 17
-460 1 -106 -16 -425 -33 -605 -6 -60 -12 -130 -14 -155 -3 -25 -6 -63 -9 -85
-3 -22 -8 -65 -11 -95 -10 -84 -13 -115 -15 -120 -2 -3 -2 -8 -1 -12 1 -7 -16
-140 -24 -183 -1 -11 -6 -47 -10 -80 -3 -33 -13 -91 -20 -130 -8 -38 -23 -113
-33 -165 -18 -94 -18 -95 -48 -97 -31 -1 -76 -8 -109 -17 -173 -46 -650 -141
-780 -156 -121 -13 -235 -28 -261 -35 -12 -2 -72 -9 -135 -15 -63 -5 -206 -19
-319 -29 -113 -11 -257 -22 -320 -26 -63 -3 -153 -8 -199 -10 -110 -7 -175
-37 -178 -85 -1 -13 -11 -31 -22 -40 -11 -8 -23 -27 -26 -42 -4 -16 -11 -28
-16 -28 -5 0 -9 -8 -9 -18 0 -25 -29 -82 -41 -82 -6 0 -7 -4 -4 -10 3 -5 36
-10 73 -10 66 0 67 0 68 -27 0 -44 13 -143 19 -153 3 -5 7 -26 10 -47 11 -97
54 -312 68 -345 10 -23 31 -47 57 -63 41 -26 42 -26 62 -8 38 34 51 73 45 133
-17 161 -98 393 -173 498 -16 22 -16 22 22 23 22 1 55 2 74 4 19 2 85 6 145 9
61 4 130 9 155 12 l46 5 2 -63 c2 -60 24 -291 39 -408 12 -101 55 -141 137
-126 58 11 86 103 63 206 -5 19 -13 55 -18 80 -5 25 -14 59 -19 75 -4 17 -18
68 -30 115 -12 47 -26 93 -31 103 -6 11 -9 20 -7 21 8 7 153 26 196 26 l49 0
42 -132 c56 -176 72 -215 98 -244 38 -42 100 -28 129 28 28 55 12 147 -52 300
-14 33 -23 62 -21 65 6 6 115 22 197 29 63 5 225 29 265 39 11 2 58 11 105 19
47 8 115 21 153 30 37 9 71 15 75 14 7 -1 21 2 142 32 41 10 122 29 180 41 88
20 111 29 142 57 21 19 36 39 35 45 -1 7 15 12 43 12 89 1 150 67 164 175 5
44 30 186 39 225 5 20 16 97 23 159 2 17 8 60 13 96 6 36 12 90 15 120 7 78
15 144 26 230 86 652 91 708 70 845 -10 68 -17 166 -25 340 -8 188 -16 346
-20 398 -5 71 -1 76 48 65 37 -9 134 -6 327 8 30 2 86 11 124 21 l68 16 94
-94 94 -94 0 -166 c0 -114 -4 -181 -14 -215 -8 -27 -17 -116 -21 -199 -3 -82
-8 -179 -10 -215 -3 -36 -7 -117 -10 -180 -6 -123 -13 -258 -20 -355 -2 -33
-7 -100 -10 -150 -8 -125 -12 -166 -31 -355 -10 -91 -18 -185 -20 -210 -2 -45
-6 -82 -24 -220 -5 -41 -12 -102 -15 -135 -4 -33 -11 -89 -16 -125 -6 -36 -17
-123 -26 -195 -8 -71 -17 -141 -19 -155 -3 -14 -11 -68 -19 -120 -7 -52 -27
-171 -43 -265 -17 -93 -33 -186 -36 -205 -4 -28 -26 -141 -62 -315 -2 -11 -8
-42 -13 -70 -5 -27 -24 -111 -41 -185 -18 -74 -34 -144 -36 -155 -2 -11 -8
-36 -13 -55 -5 -19 -24 -93 -41 -165 -18 -71 -42 -161 -53 -200 -12 -38 -22
-74 -23 -80 0 -5 -4 -17 -7 -25 -13 -30 -47 -143 -47 -156 0 -7 -6 -28 -14
-46 -8 -18 -24 -64 -36 -103 -12 -38 -28 -83 -35 -100 -7 -16 -28 -70 -45
-120 -17 -49 -38 -103 -45 -120 -8 -16 -30 -68 -50 -115 -20 -47 -52 -116 -71
-155 -19 -38 -34 -73 -34 -77 0 -4 -17 -36 -38 -70 -21 -35 -47 -81 -57 -103
-11 -22 -33 -61 -51 -86 -17 -25 -34 -54 -38 -66 -4 -11 -15 -28 -26 -38 -11
-10 -20 -24 -20 -32 0 -7 -4 -13 -10 -13 -5 0 -10 -5 -10 -11 0 -12 -49 -85
-95 -141 -16 -20 -48 -59 -69 -87 -22 -28 -43 -51 -48 -51 -4 0 -8 -5 -8 -10
0 -23 -269 -295 -385 -390 -44 -36 -86 -72 -95 -80 -19 -19 -118 -98 -156
-125 -15 -11 -53 -38 -83 -61 -31 -22 -104 -74 -162 -115 -97 -68 -138 -94
-239 -155 -19 -12 -57 -35 -85 -52 -100 -61 -300 -176 -353 -203 -29 -16 -59
-32 -65 -37 -13 -11 -258 -135 -297 -152 -14 -5 -32 -14 -40 -20 -17 -11 -229
-110 -235 -110 -3 0 -42 -17 -87 -39 -107 -50 -174 -78 -328 -136 -69 -26
-145 -55 -170 -65 -120 -48 -451 -152 -685 -214 -93 -25 -197 -52 -230 -61
-63 -17 -132 -32 -405 -89 -91 -19 -218 -46 -283 -61 -65 -14 -137 -28 -160
-31 -52 -6 -78 -11 -353 -79 -378 -93 -592 -131 -1004 -175 -642 -68 -750 -73
-1835 -75 -522 -1 -984 -2 -1025 -3 -61 -1 -101 7 -209 40 -110 33 -154 41
-235 44 -138 5 -375 23 -466 35 -41 5 -100 11 -130 14 -50 4 -194 27 -515 85
-193 34 -268 49 -360 70 -88 21 -246 57 -373 85 -35 8 -103 26 -150 40 -192
56 -220 64 -292 86 -41 13 -86 29 -100 36 -14 7 -31 13 -37 13 -14 0 -125 36
-158 50 -11 5 -47 18 -80 29 -109 36 -180 63 -205 76 -14 8 -68 31 -120 51
-52 20 -131 54 -175 74 -44 21 -129 59 -190 86 -60 26 -126 57 -145 68 -19 10
-48 26 -65 33 -125 59 -509 266 -535 288 -8 7 -42 27 -75 45 -67 35 -85 46
-173 108 -34 23 -64 42 -67 42 -14 0 -264 180 -350 252 -11 9 -52 43 -91 75
-198 161 -293 246 -329 295 -22 29 -43 54 -47 56 -3 2 -26 29 -50 60 -24 31
-52 66 -63 77 -32 32 -135 172 -161 220 -9 17 -23 34 -30 38 -8 4 -14 13 -14
18 0 6 -10 25 -22 42 -33 46 -118 189 -118 198 0 4 -3 9 -7 11 -13 5 -233 464
-233 484 0 3 -7 22 -16 42 -9 21 -20 46 -25 57 -18 42 -48 124 -78 215 -18 52
-36 103 -42 112 -5 10 -9 23 -9 29 0 6 -6 25 -13 42 -17 40 -81 248 -117 377
-7 25 -15 52 -18 60 -3 8 -5 18 -4 22 1 4 -3 20 -10 35 -6 15 -13 37 -15 47
-2 11 -10 39 -18 63 -8 24 -15 55 -15 68 0 13 -4 27 -10 30 -5 3 -10 25 -10
48 0 23 -7 55 -15 71 -9 16 -17 41 -19 55 -1 14 -5 33 -8 41 -9 23 -34 130
-73 310 -19 91 -44 204 -55 252 -11 48 -20 95 -20 104 0 10 -4 31 -9 48 -14
47 -103 546 -116 651 -4 33 -11 78 -27 175 -6 36 -12 79 -14 95 -2 17 -8 65
-14 108 -5 42 -14 110 -19 150 -5 39 -14 101 -20 137 -6 36 -15 109 -21 162
-5 53 -30 185 -54 294 -89 397 -107 530 -136 1004 -13 209 -14 216 -40 223
-23 6 -27 27 -5 27 18 0 20 31 3 48 -9 9 -8 16 5 30 21 23 22 39 2 22 -12 -10
-15 -10 -15 3 0 8 6 20 14 26 8 6 19 25 26 41 7 16 15 29 19 28 3 0 13 0 21 1
13 1 13 3 1 10 -12 8 -11 16 11 48 13 21 28 50 31 65 4 15 16 32 27 38 12 6
17 16 13 26 -7 19 33 58 50 48 9 -6 9 -4 -1 8 -14 17 -6 51 11 41 5 -3 7 -1 4
5 -10 15 3 42 20 42 8 0 11 5 8 11 -4 5 2 18 12 27 21 18 35 46 38 76 1 10 8
24 16 30 20 15 49 62 49 79 0 8 9 22 20 32 11 10 20 24 20 32 0 7 4 13 9 13 5
0 14 14 20 32 6 17 22 46 36 64 24 31 25 39 26 191 1 87 10 232 20 323 10 91
20 183 23 205 2 22 7 54 11 70 3 17 13 63 21 103 14 68 18 74 52 91 133 68
215 100 347 135 50 13 103 29 118 35 15 6 31 10 35 9 8 -1 40 9 64 23 10 5 26
9 37 9 18 0 54 39 93 100 9 14 27 39 42 55 14 17 26 34 26 38 0 5 16 29 36 55
40 52 34 60 -32 43 -24 -6 -65 -16 -91 -22 -27 -6 -57 -15 -68 -19 -11 -5 -38
-13 -60 -18 -83 -21 -393 -136 -442 -164 -17 -11 -64 -60 -104 -111 -40 -51
-89 -112 -108 -137 -20 -24 -45 -57 -56 -72 -11 -15 -61 -81 -111 -146 l-92
-118 6 -275 5 -275 -89 -13 c-49 -7 -110 -20 -136 -28 -64 -20 -80 -13 -77 35
2 20 0 105 -4 187 -4 83 -10 193 -12 244 -4 79 -2 98 12 114 14 15 15 20 3 27
-10 6 -11 12 -3 22 6 7 10 36 8 63 -1 28 -7 115 -11 195 -12 188 -10 513 5
870 6 157 13 346 16 420 9 238 26 467 46 610 24 176 148 731 201 897 197 625
388 1088 548 1328 36 55 110 188 162 295 53 107 125 239 160 292 149 229 370
541 457 644 14 17 46 58 71 90 25 32 90 112 145 179 55 66 127 154 160 195 32
41 66 81 75 90 8 8 33 38 55 65 104 130 165 199 326 370 169 180 284 289 453
430 26 22 60 50 75 63 135 119 525 387 687 473 205 108 247 129 344 166 19 7
44 17 55 23 86 41 359 116 458 126 115 12 77 35 -62 38 -44 0 -77 4 -72 9 10
10 212 55 306 67 44 6 136 14 205 18 l125 7 -119 30 -119 30 75 11 c40 7 145
16 233 22 147 9 220 6 385 -13 35 -4 60 -3 60 2 0 10 -108 39 -184 49 -25 4
-76 17 -113 30 l-68 22 105 -4 c146 -5 191 -12 294 -45 49 -16 93 -29 99 -29
5 0 56 -23 114 -51 58 -27 107 -48 110 -46 4 4 -107 81 -151 104 -15 8 8 13
98 18 126 8 157 2 255 -52 57 -31 63 -23 12 17 -85 69 -5 68 138 -1 142 -69
251 -138 332 -210 37 -32 71 -59 77 -59 6 0 15 8 21 17 15 28 -9 61 -98 137
-45 38 -81 71 -81 73 0 1 26 -11 58 -28 134 -73 297 -208 422 -351 53 -61 104
-107 157 -141 43 -29 94 -64 114 -79 20 -16 39 -25 43 -20 4 4 6 0 4 -8 -2 -8
2 -14 8 -13 6 1 45 -29 87 -68 l76 -70 48 52 c74 80 75 80 89 75 7 -3 16 0 20
6 4 7 3 8 -4 4 -23 -14 -12 0 30 39 l43 40 -34 -37 c-32 -35 -33 -38 -14 -38
12 0 35 12 50 26 15 14 21 23 13 19 -8 -4 -6 1 4 9 11 9 24 16 29 16 5 0 4 6
-2 14 -9 11 -6 13 14 11 14 -2 23 1 20 6 -3 4 9 15 27 22 18 8 60 43 94 79
102 109 300 238 564 365 192 93 214 102 375 155 83 26 161 55 175 62 35 20
159 67 190 72 14 3 36 9 50 14 27 10 371 81 480 99 36 5 97 15 135 22 294 48
423 61 476 50z m56 -177 c-3 -3 -12 -4 -19 -1 -8 3 -5 6 6 6 11 1 17 -2 13 -5z
m-2977 -885 c0 -3 16 -9 37 -12 27 -5 39 -2 49 11 8 9 14 12 14 6 0 -6 -6 -17
-14 -23 -8 -6 -19 -25 -26 -42 l-13 -30 -23 38 c-13 21 -30 52 -39 68 -14 25
-14 27 0 11 8 -11 15 -23 15 -27z m6117 -195 c-3 -3 -12 -4 -19 -1 -8 3 -5 6
6 6 11 1 17 -2 13 -5z m146 -101 c-7 -2 -19 -2 -25 0 -7 3 -2 5 12 5 14 0 19
-2 13 -5z m84 -19 c-3 -3 -12 -4 -19 -1 -8 3 -5 6 6 6 11 1 17 -2 13 -5z
m-142 -14 c3 -5 1 -10 -4 -10 -6 0 -11 5 -11 10 0 6 2 10 4 10 3 0 8 -4 11
-10z m236 -198 c-13 -2 -27 0 -32 5 -6 6 3 7 23 4 28 -4 29 -6 9 -9z m202 -22
c17 -5 24 -8 13 -9 -12 -1 -16 -6 -12 -16 7 -18 -15 -14 -114 22 l-65 23 73
-6 c40 -4 87 -10 105 -14z m507 -20 c12 -8 11 -10 -7 -10 -12 0 -25 5 -28 10
-8 13 15 13 35 0z m462 -826 c34 -17 48 -28 78 -58 31 -30 24 -43 -7 -15 -16
14 -47 38 -70 53 -58 39 -59 50 -1 20z m192 -156 c29 -24 89 -70 132 -103 99
-75 278 -248 353 -340 83 -102 154 -205 142 -205 -6 0 -11 4 -11 8 0 12 -283
316 -390 418 -52 51 -138 129 -190 174 -52 46 -97 84 -99 86 -2 2 -1 4 2 4 4
0 31 -19 61 -42z m351 -18 c3 -5 2 -10 -4 -10 -5 0 -13 5 -16 10 -3 6 -2 10 4
10 5 0 13 -4 16 -10z m-14879 -1374 c-5 -19 -83 -189 -148 -323 -18 -36 -21
-18 -4 19 43 94 106 242 106 249 0 11 41 79 47 79 3 0 2 -11 -1 -24z m16632
-1881 c-3 -3 -9 2 -12 12 -6 14 -5 15 5 6 7 -7 10 -15 7 -18z m80 -460 c-3 -3
-9 2 -12 12 -6 14 -5 15 5 6 7 -7 10 -15 7 -18z m123 -391 c5 -15 8 -29 5 -31
-2 -2 -8 10 -14 26 -13 38 -5 41 9 5z m158 -719 c0 -5 -4 -3 -9 5 -5 8 -9 22
-9 30 0 16 17 -16 18 -35z m30 -95 c0 -8 -6 0 -14 19 -8 18 -15 41 -14 50 1
19 27 -47 28 -69z m29 -419 c3 -8 -1 -12 -9 -9 -7 2 -15 10 -17 17 -3 8 1 12
9 9 7 -2 15 -10 17 -17z m-8 -650 c7 -28 21 -46 53 -67 23 -16 47 -27 52 -26
10 2 45 -50 44 -66 0 -4 10 -9 22 -12 23 -6 48 -60 27 -60 -5 0 -12 9 -15 20
-3 11 -9 20 -14 20 -12 0 -129 91 -129 101 0 4 -8 10 -19 14 -10 3 -21 18 -24
34 -3 16 -9 40 -13 55 -3 14 -4 26 0 26 3 0 10 -17 16 -39z m220 -976 c-7 -8
-18 -15 -24 -15 -6 0 -2 7 8 15 25 19 32 19 16 0z m-124 -131 c-8 -21 -15 -31
-15 -22 -1 21 18 72 24 66 3 -3 -1 -22 -9 -44z m971 -20 c166 -33 311 -92 508
-205 258 -148 524 -371 727 -609 49 -58 99 -116 111 -130 13 -14 44 -58 71
-97 27 -40 53 -73 58 -73 4 0 8 -6 8 -14 0 -8 16 -37 35 -65 47 -69 191 -357
224 -451 38 -106 95 -293 106 -346 l6 -31 -83 -16 c-205 -41 -393 -84 -533
-122 -71 -20 -152 -42 -180 -50 -27 -7 -61 -17 -75 -23 -14 -5 -65 -22 -115
-37 -80 -24 -125 -39 -190 -65 -27 -11 -150 -59 -205 -80 -78 -30 -84 -32
-148 -61 -34 -16 -65 -29 -68 -29 -13 0 -408 -198 -501 -252 -56 -32 -113 -63
-125 -68 -13 -6 -35 -18 -50 -28 -15 -9 -64 -39 -110 -66 -125 -73 -246 -153
-315 -207 -35 -27 -65 -49 -68 -49 -6 0 -184 -128 -212 -154 -13 -10 -25 -17
-28 -14 -3 3 1 38 9 79 8 41 19 106 25 144 6 39 13 84 16 100 2 17 7 48 10 70
4 22 10 67 15 100 5 33 12 92 16 130 3 39 9 74 12 79 3 6 6 19 7 30 4 58 28
252 31 257 2 4 8 58 14 120 5 63 12 134 15 159 3 25 10 104 15 175 6 72 13
146 15 165 2 19 9 105 15 190 6 85 13 180 15 210 2 30 6 109 9 175 4 66 8 154
11 195 5 83 15 400 19 642 2 111 7 162 16 173 18 21 122 77 195 105 33 12 69
26 80 31 25 11 176 37 235 42 90 6 238 -6 357 -29z m-18767 -414 c0 -5 -5 -10
-11 -10 -5 0 -7 5 -4 10 3 6 8 10 11 10 2 0 4 -4 4 -10z m-488 -74 c13 -8 41
-18 63 -21 22 -4 50 -14 63 -21 23 -15 23 -15 26 26 2 21 20 16 143 -38 l107
-48 2 -40 c9 -149 26 -395 34 -479 5 -55 12 -134 15 -175 3 -41 10 -131 16
-200 6 -69 13 -145 14 -170 2 -25 8 -81 13 -125 6 -44 14 -114 17 -155 3 -41
10 -106 16 -145 5 -38 11 -86 13 -105 2 -19 7 -60 11 -90 3 -30 8 -71 10 -90
11 -95 26 -207 44 -320 11 -69 25 -161 30 -205 6 -44 18 -116 26 -160 9 -44
18 -96 21 -115 8 -62 25 -152 51 -280 14 -69 28 -136 31 -150 4 -25 4 -24 -30
8 -19 17 -38 32 -42 32 -4 0 -25 13 -45 28 -20 16 -58 39 -86 52 -27 13 -52
26 -55 30 -3 3 -25 12 -50 19 -25 7 -76 28 -115 45 -76 35 -169 70 -282 106
-40 13 -74 29 -77 37 -3 7 -17 13 -31 13 -36 0 -145 32 -145 42 0 5 -4 7 -8 4
-11 -7 -82 15 -82 25 0 5 -7 6 -15 3 -8 -4 -25 0 -38 8 -12 8 -40 18 -62 22
-22 4 -43 12 -46 18 -3 5 -25 12 -47 15 -23 3 -47 12 -53 19 -6 8 -24 14 -40
14 -16 0 -29 5 -29 11 0 5 -4 8 -9 4 -5 -3 -12 -1 -16 5 -3 5 -18 10 -33 10
-15 0 -56 10 -92 21 -73 23 -99 30 -117 31 -7 1 -13 4 -13 8 0 4 -17 7 -37 8
-21 1 -39 6 -41 11 -2 6 -10 7 -18 4 -8 -3 -14 0 -14 7 0 6 -4 9 -8 6 -4 -3
-26 0 -48 5 -42 11 -83 20 -211 43 -45 8 -86 17 -91 20 -39 24 -496 75 -740
83 l-203 6 6 51 c13 105 42 255 67 341 11 39 29 102 40 140 10 39 23 79 28 90
5 11 26 60 46 109 58 138 203 400 252 456 8 8 31 40 53 70 90 125 145 188 312
352 71 70 161 154 200 186 88 70 260 193 304 216 18 9 51 29 75 44 24 16 69
42 101 58 32 16 69 39 82 51 30 26 174 83 213 83 15 0 34 6 40 12 7 7 34 13
60 14 26 0 57 6 69 12 28 15 36 15 27 0 -6 -10 -5 -10 7 -1 8 7 35 10 62 9 26
-2 47 0 47 4 0 13 189 1 212 -14z m1242 -5168 c4 -17 2 -28 -4 -28 -5 0 -10 9
-10 19 0 11 -4 23 -10 26 -5 3 -10 14 -10 23 0 14 2 14 14 2 7 -8 16 -27 20
-42z m10011 -4018 c4 -6 -10 -10 -37 -9 -40 1 -41 2 -13 9 43 11 43 11 50 0z
m-332 -437 c-7 -2 -21 -2 -30 0 -10 3 -4 5 12 5 17 0 24 -2 18 -5z m-119
-2123 l48 -61 -44 22 c-23 12 -53 31 -65 42 -22 19 -22 22 -6 39 9 10 17 18
18 18 1 0 23 -27 49 -60z m-149 -225 c39 -20 75 -41 80 -45 12 -10 252 -130
320 -160 28 -12 64 -28 80 -36 17 -7 59 -20 93 -29 59 -15 68 -15 112 0 43 14
80 46 111 97 4 6 14 8 22 5 12 -4 10 -15 -14 -63 -16 -31 -29 -64 -29 -73 0
-9 -7 -36 -16 -60 -8 -25 -21 -74 -29 -110 -7 -36 -16 -77 -20 -91 -4 -14 -12
-54 -20 -90 -17 -85 -21 -102 -51 -223 -14 -56 -29 -122 -34 -147 -10 -51 -36
-160 -50 -205 -5 -16 -16 -66 -25 -110 -9 -44 -23 -100 -30 -125 -7 -25 -17
-67 -23 -95 -7 -27 -37 -151 -68 -275 -31 -124 -60 -243 -65 -265 -14 -59 -87
-328 -114 -420 -13 -44 -43 -145 -65 -225 -55 -192 -61 -206 -72 -186 -10 18
-15 36 -28 115 -5 30 -16 77 -25 105 -29 95 -33 111 -40 146 -8 44 -11 53 -91
295 -36 110 -69 205 -73 210 -4 6 -17 37 -30 70 -20 53 -55 140 -81 200 -49
114 -124 257 -144 273 -25 19 -25 21 -11 55 8 19 21 37 29 40 9 4 23 23 32 44
22 51 64 193 64 217 0 11 4 33 9 50 22 71 35 123 38 147 1 14 18 93 37 175 18
82 34 156 34 164 0 8 9 71 20 140 28 169 45 377 39 478 l-5 82 32 -19 c17 -10
63 -35 101 -56z m-2138 -1432 c20 -75 27 -117 21 -128 -34 -60 -111 -324 -158
-540 -17 -78 -53 -287 -65 -380 -2 -16 -9 -61 -15 -100 -5 -38 -13 -97 -15
-129 -3 -33 -7 -61 -8 -62 -2 -2 -18 43 -36 99 -19 56 -42 125 -52 152 -9 28
-27 84 -39 125 -13 41 -33 109 -46 150 -13 41 -31 100 -41 130 -9 30 -24 80
-33 110 -20 61 -27 86 -65 215 -14 50 -31 100 -36 113 -19 49 -13 55 144 140
83 45 208 116 277 156 69 41 128 71 131 68 4 -4 20 -57 36 -119z m5813 -907
c0 -2 -7 -6 -15 -10 -8 -3 -15 -1 -15 4 0 6 7 10 15 10 8 0 15 -2 15 -4z"/>
<path d="M13445 25900 c3 -5 8 -10 11 -10 2 0 4 5 4 10 0 6 -5 10 -11 10 -5 0
-7 -4 -4 -10z"/>
<path d="M13480 25890 c0 -5 5 -10 10 -10 6 0 10 5 10 10 0 6 -4 10 -10 10 -5
0 -10 -4 -10 -10z"/>
<path d="M18660 25870 c0 -5 7 -10 15 -10 8 0 15 5 15 10 0 6 -7 10 -15 10 -8
0 -15 -4 -15 -10z"/>
<path d="M13810 25811 c0 -5 7 -12 16 -15 14 -5 15 -4 4 9 -14 17 -20 19 -20
6z"/>
<path d="M15363 25078 c15 -5 27 -16 27 -24 0 -8 5 -14 10 -14 13 0 12 11 -4
33 -7 9 -24 17 -37 16 -23 -1 -23 -1 4 -11z"/>
<path d="M21396 24855 c-11 -8 -15 -15 -9 -15 6 0 16 7 23 15 16 19 11 19 -14
0z"/>
<path d="M21410 24823 c0 -4 5 -15 10 -23 8 -13 10 -13 10 2 0 9 -4 20 -10 23
-5 3 -10 3 -10 -2z"/>
<path d="M21940 24810 c0 -5 5 -10 11 -10 5 0 7 5 4 10 -3 6 -8 10 -11 10 -2
0 -4 -4 -4 -10z"/>
<path d="M21591 24774 c0 -11 3 -14 6 -6 3 7 2 16 -1 19 -3 4 -6 -2 -5 -13z"/>
<path d="M23290 23140 c0 -5 5 -10 10 -10 6 0 10 5 10 10 0 6 -4 10 -10 10 -5
0 -10 -4 -10 -10z"/>
<path d="M20160 21718 c-450 -30 -731 -80 -1060 -188 -332 -109 -595 -247
-738 -387 -51 -49 -62 -82 -23 -69 9 3 -1 -9 -22 -27 -45 -39 -49 -62 -9 -54
15 3 99 23 187 46 88 22 180 43 205 46 25 4 90 13 145 20 55 8 125 17 155 20
30 3 66 7 80 10 28 6 210 21 430 35 201 14 745 20 860 10 52 -5 131 -11 175
-15 100 -7 342 -40 455 -62 47 -9 100 -17 119 -19 19 -2 48 -8 65 -13 17 -5
69 -17 116 -26 47 -9 94 -20 105 -25 11 -5 34 -11 50 -13 66 -10 361 -85 570
-146 248 -72 369 -111 407 -132 10 -5 23 -9 28 -9 11 0 104 -40 142 -61 10 -5
23 -9 29 -9 10 0 584 -279 619 -301 8 -5 26 -14 40 -19 14 -6 43 -20 65 -31
418 -217 392 -208 442 -160 30 29 38 65 22 99 -14 28 -100 112 -114 112 -28 0
-155 95 -190 142 -49 65 -227 242 -275 273 -19 12 -54 37 -76 56 -23 19 -52
41 -64 49 -12 8 -28 20 -34 25 -27 25 -212 145 -256 167 -14 7 -44 25 -68 41
-110 74 -314 178 -492 252 -122 51 -315 125 -326 125 -6 0 -51 13 -100 30 -49
16 -145 43 -214 60 -69 17 -141 35 -160 40 -19 6 -48 13 -65 16 -175 34 -282
49 -525 75 -142 15 -571 26 -700 17z"/>
<path d="M12295 21663 c-179 -9 -411 -25 -475 -33 -128 -18 -269 -40 -415 -66
-77 -14 -153 -27 -170 -30 -16 -3 -39 -9 -50 -14 -11 -5 -67 -20 -125 -34
-140 -32 -324 -83 -347 -95 -10 -5 -67 -26 -128 -46 -120 -41 -190 -68 -315
-123 -25 -11 -88 -38 -140 -60 -203 -87 -570 -293 -730 -410 -137 -100 -235
-174 -306 -229 -97 -76 -285 -259 -384 -373 -95 -109 -160 -173 -238 -233 -72
-55 -85 -87 -26 -62 20 8 38 15 40 15 1 0 -1 -13 -6 -30 -5 -19 -5 -32 2 -36
9 -6 69 46 138 118 14 14 97 67 185 117 88 50 167 95 175 100 151 97 571 307
855 426 171 72 291 120 355 141 41 14 102 36 135 49 33 13 101 35 150 50 50
15 110 34 135 42 226 74 612 160 865 192 260 34 362 39 710 36 334 -4 401 -7
555 -26 47 -6 99 -13 117 -14 17 -2 40 -6 50 -9 10 -3 47 -8 83 -11 36 -2 100
-12 143 -20 43 -8 81 -14 85 -13 4 1 14 -1 22 -4 13 -5 249 -40 350 -53 19 -2
82 -18 140 -34 143 -40 281 -66 313 -57 33 8 73 65 85 123 13 57 -7 95 -78
150 -30 23 -63 50 -74 59 -10 9 -44 31 -75 48 -31 18 -130 79 -220 135 -160
102 -364 201 -481 234 -61 18 -248 48 -325 52 -27 2 -106 8 -175 13 -69 5
-174 11 -235 12 -60 1 -112 2 -115 3 -3 1 -27 1 -55 0z m1400 -484 c12 -12
-10 -12 -55 0 -19 5 -47 12 -62 15 -16 4 -28 10 -28 15 0 10 130 -17 145 -30z"/>
<path d="M8062 20250 c0 -14 2 -19 5 -12 2 6 2 18 0 25 -3 6 -5 1 -5 -13z"/>
<path d="M8041 20164 c0 -11 3 -14 6 -6 3 7 2 16 -1 19 -3 4 -6 -2 -5 -13z"/>
<path d="M20795 19584 c-16 -3 -60 -11 -97 -19 -37 -8 -89 -15 -115 -15 -26 0
-76 -9 -111 -19 -156 -48 -268 -156 -288 -278 -14 -87 28 -208 99 -289 l37
-43 -52 -5 c-29 -3 -125 -8 -213 -11 -88 -3 -230 -12 -315 -20 -85 -9 -202
-20 -260 -25 -58 -6 -116 -12 -130 -15 -14 -2 -54 -7 -90 -10 -36 -4 -72 -8
-80 -10 -8 -3 -71 -14 -140 -25 -159 -25 -275 -47 -320 -59 -91 -25 -203 -51
-220 -51 -10 0 -31 -7 -47 -15 -15 -8 -67 -26 -115 -40 -76 -23 -94 -33 -135
-74 -95 -96 -143 -150 -143 -162 0 -6 -11 -20 -25 -31 -14 -11 -25 -28 -25
-38 0 -10 -9 -22 -21 -25 -15 -5 -17 -10 -9 -20 9 -11 23 -9 75 10 35 13 66
21 68 18 3 -2 13 0 24 5 14 8 126 43 178 56 6 1 28 8 50 14 94 27 418 95 535
112 36 5 101 16 145 24 44 8 134 20 200 26 66 6 154 15 195 20 41 6 110 12
154 15 43 3 81 7 85 9 3 2 58 7 121 10 63 3 135 8 160 11 l45 5 -55 -27 c-30
-14 -102 -50 -160 -78 -154 -75 -253 -126 -270 -140 -8 -7 -46 -29 -85 -50
-38 -20 -79 -45 -90 -54 -11 -10 -43 -32 -72 -49 -73 -44 -256 -185 -332 -257
-155 -144 -295 -309 -367 -432 -14 -25 -52 -72 -83 -104 -38 -40 -66 -81 -85
-126 -61 -142 -68 -159 -92 -205 -35 -70 -30 -75 28 -24 29 25 55 46 59 46 3
0 4 -11 2 -24 -7 -36 13 -66 45 -66 33 1 46 10 151 113 46 45 81 73 76 62 -4
-11 -10 -45 -12 -75 -3 -30 -11 -70 -19 -89 -8 -18 -14 -36 -14 -39 0 -3 26
23 58 58 l58 63 -4 -34 c-2 -24 1 -39 13 -49 14 -12 25 -5 91 61 41 40 74 70
74 66 0 -4 -11 -29 -24 -56 -24 -47 -49 -129 -65 -216 -8 -44 -8 -45 35 -81
59 -48 202 -137 296 -185 177 -89 444 -170 758 -228 36 -7 75 -14 87 -17 21
-4 22 -6 21 -212 0 -114 3 -227 6 -252 4 -25 9 -64 11 -87 2 -23 6 -51 10 -63
4 -12 8 -36 10 -53 7 -68 97 -361 116 -377 3 -3 12 -20 20 -39 28 -69 100
-204 127 -240 15 -20 50 -69 77 -110 87 -129 304 -341 426 -416 9 -5 36 -24
60 -41 48 -34 132 -79 222 -118 31 -14 57 -30 57 -35 0 -24 -273 5 -505 53
-286 59 -574 178 -925 379 -61 35 -235 169 -324 250 -93 85 -190 206 -233 290
-29 57 -45 52 -45 -14 0 -160 196 -428 457 -625 60 -46 115 -88 122 -93 39
-34 387 -214 493 -256 25 -9 52 -21 60 -25 9 -4 30 -11 48 -14 17 -4 34 -12
37 -17 4 -5 15 -9 26 -9 10 0 27 -4 37 -9 15 -9 68 -24 172 -51 269 -70 659
-94 900 -55 152 24 214 35 225 39 6 2 15 5 20 6 89 24 259 100 384 171 29 16
96 65 149 107 52 42 118 95 146 117 29 22 80 63 114 92 33 28 68 57 77 65 9 7
31 28 49 46 18 17 37 32 42 32 5 0 22 14 38 32 25 29 30 30 49 19 18 -12 23
-10 49 20 126 151 355 544 437 753 35 88 76 234 97 347 30 163 29 493 -3 679
-4 24 -2 32 5 25 13 -13 102 -183 102 -195 0 -6 8 -28 17 -50 19 -43 39 -55
30 -17 -3 12 -17 101 -31 197 -34 223 -56 348 -69 380 -5 14 -16 40 -24 57 -7
18 -20 50 -27 72 -8 21 -37 75 -65 121 -28 45 -51 85 -51 90 0 4 -6 13 -14 19
-11 9 -16 3 -25 -34 -15 -62 -58 -106 -143 -149 -67 -34 -83 -37 -203 -46
-142 -11 -332 0 -443 25 -117 27 -195 81 -226 157 -22 52 -20 74 12 143 71
150 156 191 413 202 143 6 255 -7 369 -43 41 -13 75 -22 76 -21 5 5 -153 183
-247 277 -85 87 -292 260 -364 305 -119 75 -146 94 -191 132 -49 40 -188 133
-201 133 -3 0 -20 11 -37 23 -17 13 -75 44 -129 68 -81 37 -93 45 -70 48 27 3
152 -10 293 -30 36 -5 88 -11 115 -14 28 -3 73 -10 100 -15 28 -5 68 -12 90
-15 22 -2 67 -10 100 -15 33 -6 85 -15 115 -21 72 -13 70 -12 181 -38 92 -22
98 -22 129 -6 23 12 29 19 20 25 -9 6 -7 13 9 29 11 11 21 25 21 30 0 5 15 15
34 22 20 7 33 18 32 28 0 8 4 16 11 16 16 0 29 15 13 15 -8 0 -5 7 8 18 24 21
13 52 -19 52 -10 0 -27 4 -37 9 -23 12 -267 71 -315 76 -21 3 -42 7 -46 10 -5
2 -42 9 -82 15 -40 6 -103 17 -139 25 -67 14 -148 25 -400 51 -220 23 -331 33
-374 34 l-38 0 35 44 c20 23 44 61 53 82 9 21 21 49 26 60 14 30 -16 148 -50
198 -36 53 -138 143 -170 151 -15 3 -83 32 -152 64 -172 81 -222 92 -415 96
-88 2 -173 1 -190 -1z m1819 -4595 c-3 -5 1 -6 8 -4 8 3 24 -5 36 -18 l23 -24
-78 -73 c-96 -89 -158 -132 -293 -199 -84 -42 -120 -54 -180 -61 -41 -5 -133
-18 -204 -29 -130 -21 -308 -26 -356 -11 l-25 8 27 1 c36 1 78 21 78 37 0 7 8
10 21 7 15 -4 22 0 26 16 3 12 10 20 17 19 6 -1 20 3 31 9 11 6 24 11 30 11 5
0 11 6 13 12 3 8 -3 10 -17 5 -15 -4 -21 -2 -21 8 0 22 23 37 47 31 13 -4 22
0 26 10 4 9 1 16 -5 16 -6 0 -8 3 -5 6 4 4 13 1 21 -6 13 -10 18 -9 31 3 8 8
32 18 54 22 30 5 41 12 45 31 4 13 11 24 17 24 8 0 8 -5 -1 -15 -9 -11 -4 -11
29 3 22 9 42 26 45 37 3 10 8 16 12 13 9 -9 33 15 27 27 -2 6 3 1 11 -9 9 -11
17 -16 17 -10 1 5 2 16 3 24 0 8 9 14 19 12 9 -2 17 1 17 6 0 6 11 13 25 16
14 4 25 11 25 17 0 6 5 7 10 4 6 -4 8 -10 5 -15 -3 -5 9 -3 27 4 18 7 42 17
53 21 11 5 25 7 32 6 6 -1 14 3 18 9 5 8 11 8 19 0 7 -5 28 -8 47 -6 19 2 44
4 57 5 13 0 20 6 17 11 -9 15 2 12 19 -6 19 -18 60 -9 52 11 -4 11 1 11 25 3
16 -5 26 -14 23 -19z m124 -77 l23 -18 -33 -30 c-18 -16 -67 -52 -108 -78 -41
-27 -81 -54 -89 -60 -8 -6 7 16 33 49 50 63 137 155 146 155 3 0 15 -8 28 -18z
m-1245 -329 c-7 -2 -19 -2 -25 0 -7 3 -2 5 12 5 14 0 19 -2 13 -5z"/>
<path d="M11280 19561 c-122 -13 -197 -37 -338 -109 -177 -89 -218 -122 -260
-202 -32 -61 -34 -70 -30 -145 6 -128 57 -204 174 -261 l59 -29 -100 -7 c-55
-4 -136 -9 -180 -12 -117 -9 -237 -35 -257 -57 -10 -10 -38 -30 -63 -45 -29
-16 -45 -33 -45 -45 0 -35 -30 -70 -53 -63 -20 6 -20 6 -4 -10 9 -10 17 -22
17 -27 0 -12 -17 -11 -25 1 -4 7 -14 2 -26 -11 -22 -25 -24 -35 -9 -44 6 -4 8
-15 5 -26 -6 -17 -3 -19 17 -15 40 10 310 44 393 51 91 7 90 4 -20 -52 -61
-31 -189 -104 -235 -133 -8 -6 -21 -13 -29 -17 -8 -3 -22 -13 -30 -20 -9 -8
-66 -49 -127 -91 -167 -115 -208 -149 -334 -273 -202 -199 -371 -442 -387
-555 -3 -27 -23 -81 -44 -121 -62 -118 -62 -203 -1 -203 21 0 52 23 131 97 57
54 100 89 94 78 -5 -11 -10 -36 -12 -55 -1 -31 -9 -67 -28 -135 -3 -12 10 -2
33 24 82 95 76 90 70 60 -4 -19 0 -34 14 -50 l20 -24 72 76 c123 127 104 124
199 35 164 -154 564 -384 889 -511 122 -48 123 -49 110 -111 -23 -114 -33
-483 -16 -604 3 -19 7 -57 10 -83 2 -26 8 -62 12 -80 4 -18 8 -39 9 -47 5 -33
36 -156 44 -175 9 -19 44 -124 46 -135 1 -6 48 -106 88 -185 16 -33 37 -73 45
-90 8 -16 21 -37 29 -46 8 -10 29 -40 46 -67 55 -86 112 -155 219 -264 161
-164 336 -284 543 -373 l40 -17 -29 -9 c-16 -4 -74 -3 -130 2 -55 6 -108 10
-116 11 -8 0 -71 11 -140 24 -316 60 -567 152 -895 329 -286 154 -574 417
-674 613 -26 51 -41 47 -41 -11 0 -220 309 -576 690 -797 100 -58 294 -155
370 -185 25 -10 59 -23 75 -30 62 -26 272 -94 320 -104 28 -5 68 -14 90 -20
64 -16 273 -45 350 -48 149 -6 314 -3 380 7 122 17 260 46 290 59 11 5 47 16
79 26 58 17 207 86 318 148 54 31 289 216 409 324 37 34 64 50 74 47 23 -9 58
18 189 145 211 207 278 302 435 621 112 226 158 342 200 495 28 103 30 123 32
308 2 108 4 197 6 197 2 0 11 -18 20 -40 20 -46 34 -52 28 -12 -13 91 -26 174
-35 222 -6 30 -13 82 -16 115 -9 92 -40 228 -67 287 -13 29 -27 65 -30 79 -4
15 -15 37 -26 50 l-19 23 -45 -46 c-67 -69 -122 -83 -302 -75 -243 10 -484 66
-570 131 -47 37 -68 87 -63 155 9 120 80 165 285 183 161 15 340 14 417 -1 33
-6 61 -10 62 -8 8 7 -166 208 -276 317 -141 141 -252 233 -420 345 -63 43
-117 80 -120 84 -3 3 -30 25 -61 49 -67 50 -151 83 -194 75 -25 -5 -28 -4 -18
8 9 11 7 16 -13 26 -26 12 -32 5 -12 -15 9 -9 9 -12 0 -12 -7 0 -12 5 -12 10
0 6 -12 8 -27 4 -20 -4 -24 -3 -14 4 8 6 15 21 17 34 2 21 -2 23 -49 25 -28 1
-58 -4 -66 -10 -12 -10 -14 -9 -8 5 4 12 0 21 -13 28 -28 15 -60 12 -67 -6 -4
-11 -13 -14 -30 -9 -18 4 -29 0 -42 -16 -11 -14 -24 -20 -34 -16 -21 8 -22 37
-2 37 8 0 15 4 15 9 0 14 -63 7 -68 -8 -3 -10 0 -12 11 -8 11 4 14 2 10 -9 -7
-18 -29 -18 -37 1 -7 19 -20 19 -39 1 -18 -19 -91 -18 -75 1 6 7 23 13 38 13
30 0 120 46 120 61 0 17 -31 9 -64 -16 -36 -27 -56 -32 -56 -13 0 6 -11 1 -25
-12 l-25 -23 0 21 c0 12 -4 22 -10 22 -5 0 -10 -11 -10 -24 0 -14 -4 -27 -10
-31 -8 -5 -48 12 -60 26 -3 3 -17 9 -32 12 -14 4 -33 10 -42 13 -11 4 -16 0
-16 -12 -1 -16 -4 -15 -24 8 -23 26 -47 28 -25 2 8 -10 3 -12 -28 -10 -21 2
-42 0 -48 -4 -19 -14 -64 -20 -70 -10 -8 13 -65 13 -65 0 0 -14 -37 -13 -46 1
-5 8 -9 8 -14 -1 -6 -10 -18 -10 -57 -1 -27 7 -54 11 -59 10 -5 -1 -16 -1 -24
0 -12 1 -12 3 2 12 19 11 13 39 -8 39 -8 0 -11 -6 -7 -16 4 -12 2 -15 -8 -12
-16 5 -24 88 -8 88 6 0 7 -4 4 -10 -3 -5 -1 -10 6 -10 6 0 9 8 6 20 -5 19 14
45 26 34 3 -3 17 2 32 12 25 17 26 19 9 31 -17 12 -17 13 2 13 16 0 16 2 4 10
-13 8 -12 13 8 32 24 25 29 25 281 19 l104 -2 34 33 c70 68 100 168 74 251 -5
18 -13 52 -16 77 -10 64 -36 109 -92 161 -62 58 -149 109 -243 142 -41 14
-105 37 -142 51 -58 22 -87 26 -230 30 -89 2 -197 1 -238 -3z m372 -1013 c-9
-9 -15 -9 -24 0 -9 9 -7 12 12 12 19 0 21 -3 12 -12z m463 -8 c3 -5 1 -10 -4
-10 -6 0 -11 5 -11 10 0 6 2 10 4 10 3 0 8 -4 11 -10z m575 -30 c0 -5 -4 -10
-10 -10 -5 0 -10 5 -10 10 0 6 5 10 10 10 6 0 10 -4 10 -10z m-90 -10 c18 -12
2 -12 -25 0 -13 6 -15 9 -5 9 8 0 22 -4 30 -9z m173 -22 c-6 -11 -43 -10 -43
1 0 5 11 8 24 7 13 0 22 -4 19 -8z m-89 -3320 c208 -42 473 -156 621 -268 44
-33 81 -64 83 -69 5 -15 -83 -75 -200 -135 -101 -53 -115 -57 -265 -81 -268
-44 -295 -47 -388 -42 -183 9 -271 31 -448 111 -32 14 -60 26 -62 26 -17 0
-224 152 -225 165 0 6 19 34 43 62 108 135 317 233 536 253 105 9 176 4 305
-22z m766 -383 c0 -2 -16 -12 -36 -24 -34 -20 -36 -14 -7 21 12 13 43 16 43 3z"/>
<path d="M11880 18740 c0 -5 5 -10 10 -10 6 0 10 5 10 10 0 6 -4 10 -10 10 -5
0 -10 -4 -10 -10z"/>
<path d="M12247 18714 c-4 -4 -24 -11 -44 -15 -34 -7 -32 -7 17 -6 30 2 56 7
58 12 4 12 -21 19 -31 9z"/>
<path d="M12110 18691 c0 -12 5 -21 10 -21 6 0 10 6 10 14 0 8 -4 18 -10 21
-5 3 -10 -3 -10 -14z"/>
<path d="M11915 18660 c3 -5 8 -10 11 -10 2 0 4 5 4 10 0 6 -5 10 -11 10 -5 0
-7 -4 -4 -10z"/>
<path d="M12203 18646 c19 -19 40 -21 35 -3 -3 6 -15 14 -28 15 -21 4 -22 2
-7 -12z"/>
<path d="M12395 18639 c-10 -15 3 -25 16 -12 7 7 7 13 1 17 -6 3 -14 1 -17 -5z"/>
<path d="M11735 18610 c-3 -5 -1 -10 4 -10 6 0 11 5 11 10 0 6 -2 10 -4 10 -3
0 -8 -4 -11 -10z"/>
<path d="M11930 18610 c0 -5 5 -10 10 -10 6 0 10 5 10 10 0 6 -4 10 -10 10 -5
0 -10 -4 -10 -10z"/>
<path d="M12145 18610 c3 -5 8 -10 11 -10 2 0 4 5 4 10 0 6 -5 10 -11 10 -5 0
-7 -4 -4 -10z"/>
<path d="M12395 18600 c-16 -7 -17 -9 -3 -9 9 -1 20 4 23 9 7 11 7 11 -20 0z"/>
<path d="M12610 18600 c0 -5 5 -10 10 -10 6 0 10 5 10 10 0 6 -4 10 -10 10 -5
0 -10 -4 -10 -10z"/>
<path d="M12530 18584 c0 -8 5 -12 10 -9 6 4 8 11 5 16 -9 14 -15 11 -15 -7z"/>
<path d="M10120 18580 c0 -5 5 -10 10 -10 6 0 10 5 10 10 0 6 -4 10 -10 10 -5
0 -10 -4 -10 -10z"/>
<path d="M12700 18570 c0 -5 5 -10 11 -10 5 0 7 5 4 10 -3 6 -8 10 -11 10 -2
0 -4 -4 -4 -10z"/>
<path d="M10040 18470 c0 -5 5 -10 10 -10 6 0 10 5 10 10 0 6 -4 10 -10 10 -5
0 -10 -4 -10 -10z"/>
<path d="M25550 18380 c0 -5 5 -10 11 -10 5 0 7 5 4 10 -3 6 -8 10 -11 10 -2
0 -4 -4 -4 -10z"/>
<path d="M15010 18327 c-37 -36 -59 -65 -54 -70 3 -2 -11 -19 -30 -38 -19 -18
-33 -36 -30 -40 2 -4 -4 -12 -13 -18 -10 -6 -14 -11 -9 -11 5 0 1 -9 -9 -20
-26 -29 -13 -46 42 -53 26 -3 75 -16 107 -29 55 -22 60 -27 73 -68 7 -25 15
-56 18 -70 2 -14 10 -52 19 -85 13 -53 23 -110 57 -325 23 -152 29 -203 34
-288 3 -51 7 -98 10 -103 20 -32 5 -785 -18 -919 -2 -14 -8 -61 -11 -105 -17
-197 -111 -831 -130 -875 -3 -8 -10 -42 -15 -75 -26 -168 -143 -657 -179 -745
-3 -8 -7 -19 -7 -25 -4 -23 -19 -72 -33 -105 -9 -19 -16 -39 -17 -45 -1 -5 -5
-19 -9 -30 -4 -11 -12 -31 -17 -45 -8 -21 -29 -32 -117 -63 -59 -20 -116 -37
-128 -37 -11 0 -29 -7 -40 -15 -10 -8 -32 -15 -47 -15 -15 0 -44 -7 -65 -16
-47 -19 -253 -75 -312 -83 -25 -4 -55 -12 -66 -19 -12 -6 -38 -14 -57 -16 -42
-5 -282 -51 -382 -73 -82 -18 -261 -42 -360 -48 -38 -3 -90 -7 -115 -11 -128
-16 -522 -31 -783 -29 l-296 1 -20 -27 c-11 -15 -23 -39 -27 -53 -3 -14 -10
-29 -15 -32 -5 -3 -20 -30 -34 -60 -14 -30 -31 -57 -39 -60 -8 -3 -12 -12 -10
-19 4 -9 -5 -15 -28 -17 -30 -3 -44 -23 -15 -23 6 0 15 -4 18 -8 9 -13 805
-18 1024 -7 174 9 300 23 610 65 106 15 150 22 150 25 0 1 16 3 35 6 121 15
373 68 453 96 31 10 74 21 95 23 20 3 60 11 87 19 208 60 362 108 375 115 9 5
31 12 49 16 19 4 52 16 75 26 22 10 59 19 81 19 30 0 50 8 78 31 41 34 111
128 150 203 24 46 25 51 11 78 -9 17 -12 37 -8 46 4 10 8 22 9 27 0 6 4 17 7
25 3 8 11 33 17 55 7 22 16 49 21 60 5 11 21 74 35 140 15 66 30 127 33 135 6
16 29 110 36 150 3 14 12 57 21 95 9 39 18 81 19 95 3 28 32 180 47 250 6 25
12 59 14 75 2 17 10 68 19 115 8 47 18 113 22 148 8 75 1 70 164 102 185 35
221 41 294 49 l70 7 -30 -20 c-61 -43 -132 -126 -148 -173 -20 -59 -21 -156
-1 -214 34 -100 153 -193 280 -220 33 -6 83 -22 110 -35 70 -32 153 -43 249
-33 45 5 88 12 95 15 8 3 83 9 165 14 164 10 241 26 326 67 97 47 208 181 195
235 -8 32 -65 432 -62 434 1 2 65 -2 142 -7 77 -6 166 -10 198 -11 35 0 57 -4
58 -11 0 -16 17 -160 24 -222 4 -27 12 -79 20 -115 7 -36 13 -72 13 -80 1 -12
15 -101 37 -225 2 -11 6 -42 10 -70 3 -27 8 -61 11 -75 3 -14 7 -34 9 -45 2
-11 6 -31 9 -45 3 -14 8 -38 11 -55 4 -16 10 -50 16 -75 5 -25 18 -91 29 -147
11 -57 27 -129 36 -160 8 -32 21 -87 29 -123 21 -98 71 -292 96 -371 17 -54
31 -77 58 -100 33 -28 41 -30 98 -27 42 3 68 10 82 22 22 20 19 21 166 -17
132 -33 447 -77 735 -102 243 -22 313 -23 334 -6 8 7 26 9 43 5 27 -6 28 -6 8
11 -20 16 -20 16 3 12 12 -3 22 -1 22 4 0 5 -5 9 -11 9 -5 0 -8 4 -5 9 3 4 -6
6 -19 3 -31 -6 -31 0 0 34 14 15 25 22 25 15 0 -6 4 -11 9 -11 4 0 6 11 3 25
-4 25 12 35 21 13 3 -7 6 2 6 20 1 26 5 33 19 30 9 -2 16 -10 15 -16 -4 -16 5
-15 21 1 11 10 11 15 0 25 -7 7 -19 12 -26 12 -10 0 -10 2 -1 8 8 5 9 13 3 22
-7 11 -32 15 -97 16 -48 1 -142 4 -208 8 -66 3 -174 6 -240 6 -66 1 -158 5
-205 10 -71 8 -348 18 -522 20 -40 0 -48 3 -53 23 -4 12 -17 58 -29 102 -60
206 -131 530 -195 885 -16 86 -31 165 -35 177 -4 11 -9 49 -12 84 -3 34 -10
71 -15 81 -5 10 -8 22 -5 27 3 4 1 23 -4 42 -5 19 -16 86 -24 149 -9 63 -20
147 -26 185 -5 39 -12 90 -14 115 -12 98 -16 138 -26 215 -29 231 -50 577 -50
825 0 167 14 488 25 595 3 22 12 99 20 170 8 72 17 153 20 180 3 28 10 79 16
114 11 67 5 87 -15 59 -7 -10 -15 -15 -18 -12 -8 8 -78 -80 -78 -98 0 -9 -12
-23 -26 -33 -18 -11 -22 -20 -15 -28 12 -15 -10 -47 -32 -47 -13 0 -15 -7 -10
-30 5 -26 2 -30 -15 -30 -14 0 -20 -5 -16 -14 5 -13 -8 -34 -43 -71 -7 -8 -13
-21 -13 -30 0 -9 -6 -28 -14 -43 -47 -93 -73 -638 -52 -1097 10 -207 15 -299
17 -302 1 -2 2 -15 3 -30 1 -16 5 -41 9 -58 11 -49 3 -52 -118 -43 -261 18
-376 22 -645 22 -295 1 -360 -4 -360 -29 0 -12 -17 -15 -82 -16 -46 0 -92 -2
-103 -3 -11 -2 -58 -8 -105 -15 -275 -38 -434 -69 -551 -110 l-57 -19 3 31 c2
18 8 77 14 132 11 106 16 167 27 335 8 118 7 533 -1 625 -3 33 -8 87 -10 120
-2 33 -9 92 -15 130 -6 39 -16 102 -21 140 -10 73 -24 146 -38 205 -5 19 -18
71 -29 115 -32 132 -67 236 -108 320 -43 89 -43 90 -47 157 -3 40 -9 53 -37
79 -45 39 -75 55 -125 63 -34 6 -44 3 -65 -17z m210 -137 c0 -5 -2 -10 -4 -10
-3 0 -8 5 -11 10 -3 6 -1 10 4 10 6 0 11 -4 11 -10z m2759 -4344 c15 -9 20
-16 12 -20 -6 -4 -23 2 -37 13 -30 23 -12 28 25 7z"/>
<path d="M8388 18241 c-29 -23 -72 -100 -98 -177 -23 -67 -19 -80 9 -33 11 19
24 39 28 44 5 6 24 33 43 60 19 28 37 52 40 55 9 8 40 59 40 65 0 12 -39 3
-62 -14z"/>
<path d="M25680 18126 c0 -2 8 -10 18 -17 15 -13 16 -12 3 4 -13 16 -21 21
-21 13z"/>
<path d="M8206 17925 c-3 -8 -1 -15 4 -15 6 0 10 7 10 15 0 8 -2 15 -4 15 -2
0 -6 -7 -10 -15z"/>
<path d="M25770 17624 c0 -8 5 -12 10 -9 6 3 10 10 10 16 0 5 -4 9 -10 9 -5 0
-10 -7 -10 -16z"/>
<path d="M14395 16340 c-3 -5 -1 -10 4 -10 6 0 11 5 11 10 0 6 -2 10 -4 10 -3
0 -8 -4 -11 -10z"/>
<path d="M23535 16331 c-3 -5 -1 -12 5 -16 5 -3 10 1 10 9 0 18 -6 21 -15 7z"/>
<path d="M8514 16232 c-6 -4 -21 -29 -33 -55 -12 -26 -28 -51 -36 -54 -8 -3
-15 -15 -15 -27 0 -11 -9 -32 -20 -46 -11 -14 -20 -30 -20 -37 0 -6 -4 -13 -9
-15 -4 -1 -25 -34 -46 -72 -36 -66 -37 -71 -32 -140 7 -91 23 -202 42 -291 14
-69 51 -263 76 -400 7 -38 16 -74 20 -80 4 -5 10 -28 14 -50 4 -22 16 -70 26
-106 11 -37 23 -86 28 -110 11 -55 93 -299 133 -399 17 -41 32 -84 34 -95 7
-51 115 -263 159 -312 44 -49 50 -53 93 -53 26 -1 58 -7 72 -15 44 -25 47 -22
82 63 7 17 17 32 22 32 4 0 6 6 3 14 -3 8 1 20 9 26 8 7 14 18 14 25 0 7 7 18
15 25 31 25 12 46 -48 54 -19 3 -37 23 -37 42 0 5 -14 32 -32 60 -17 27 -34
63 -39 79 -6 26 -42 120 -69 180 -5 11 -12 31 -15 45 -3 14 -14 45 -24 70 -11
25 -27 72 -36 105 -9 33 -23 80 -31 105 -17 57 -52 188 -70 260 -7 30 -18 73
-24 95 -6 22 -17 72 -24 110 -8 39 -21 102 -29 140 -18 85 -38 198 -72 410
-36 228 -44 282 -50 350 -6 64 -13 79 -31 67z"/>
<path d="M9150 14039 c0 -5 5 -7 10 -4 6 3 10 8 10 11 0 2 -4 4 -10 4 -5 0
-10 -5 -10 -11z"/>
<path d="M19517 13936 c-6 -15 1 -26 15 -26 11 0 10 27 -1 34 -5 3 -11 0 -14
-8z"/>
<path d="M9080 13900 c0 -5 5 -10 10 -10 6 0 10 5 10 10 0 6 -4 10 -10 10 -5
0 -10 -4 -10 -10z"/>
<path d="M19460 13810 c0 -5 5 -10 11 -10 5 0 7 5 4 10 -3 6 -8 10 -11 10 -2
0 -4 -4 -4 -10z"/>
<path d="M19430 13784 c0 -13 18 -39 24 -34 2 3 -2 14 -10 24 -8 11 -14 16
-14 10z"/>
<path d="M21970 13770 c0 -5 5 -10 11 -10 5 0 7 5 4 10 -3 6 -8 10 -11 10 -2
0 -4 -4 -4 -10z"/>
<path d="M10252 13581 c-30 -18 -51 -125 -72 -366 -22 -241 -7 -324 62 -349
29 -10 82 0 73 14 -3 5 0 7 7 5 21 -8 55 62 61 125 3 30 1 129 -4 220 -17 309
-23 333 -80 348 -20 5 -42 7 -47 3z"/>
<path d="M10702 13483 c-30 -44 -51 -110 -68 -218 -26 -169 -28 -250 -8 -284
21 -35 67 -61 96 -53 30 8 84 66 91 98 7 31 1 330 -7 376 -11 67 -19 89 -36
98 -30 16 -47 12 -68 -17z"/>
<path d="M11069 13473 c0 -4 -1 -105 -1 -224 -1 -227 3 -260 45 -306 29 -33
81 -31 114 5 33 35 43 63 43 120 0 94 -58 364 -84 390 -15 16 -115 28 -117 15z"/>
<path d="M11690 13430 c8 -5 20 -10 25 -10 6 0 3 5 -5 10 -8 5 -19 10 -25 10
-5 0 -3 -5 5 -10z"/>
<path d="M21125 12698 c-16 -6 -43 -15 -58 -21 -43 -15 -61 -58 -49 -121 5
-28 11 -57 13 -65 4 -15 -115 -82 -206 -116 -28 -10 -54 -22 -60 -25 -5 -4
-28 -13 -50 -20 -22 -7 -44 -16 -50 -20 -5 -4 -53 -24 -105 -45 -52 -20 -99
-41 -104 -46 -6 -5 -17 -9 -25 -9 -9 0 -47 -12 -86 -26 -141 -52 -172 -62
-260 -88 -49 -15 -119 -36 -154 -48 -35 -12 -113 -34 -175 -50 -61 -15 -118
-30 -126 -32 -8 -3 -64 -16 -125 -31 -60 -15 -144 -35 -185 -45 -87 -22 -367
-83 -455 -99 -33 -6 -121 -22 -195 -36 -218 -41 -231 -44 -310 -54 -41 -6
-120 -18 -175 -27 -55 -9 -110 -18 -122 -19 -12 -2 -34 -6 -50 -9 -15 -3 -53
-8 -83 -11 -108 -10 -155 -16 -172 -21 -10 -3 -35 -7 -55 -9 -21 -2 -83 -9
-138 -14 -55 -6 -138 -15 -185 -21 -47 -6 -146 -17 -220 -25 -322 -34 -361
-45 -311 -86 26 -21 77 -37 166 -50 82 -13 453 -18 600 -8 228 15 270 18 315
23 25 3 95 10 155 16 61 6 130 13 155 15 25 3 104 14 175 25 72 12 162 25 200
30 39 5 99 14 135 20 36 6 106 17 155 25 157 25 640 126 760 160 28 7 100 25
160 40 61 14 124 32 141 40 17 8 65 22 105 30 41 8 90 21 109 29 19 8 89 31
155 51 66 21 129 41 140 46 11 4 49 19 85 33 204 78 255 98 350 139 58 25 153
68 212 96 58 28 110 51 116 51 5 0 15 7 22 15 8 9 29 15 55 15 53 0 118 45
151 104 18 32 20 44 12 79 -12 53 -30 82 -84 133 -78 75 -192 110 -269 82z"/>
<path d="M11980 12282 c-79 -6 -167 -88 -205 -192 -9 -25 -22 -55 -27 -67 -17
-34 -1 -89 33 -117 36 -30 76 -33 122 -9 18 9 57 20 87 24 46 7 61 14 88 44
l34 37 56 -23 c32 -12 80 -33 107 -47 50 -25 210 -84 335 -124 36 -11 92 -31
125 -43 33 -13 114 -37 180 -55 66 -17 147 -40 180 -51 62 -20 357 -94 435
-109 25 -5 104 -20 175 -34 72 -14 175 -33 229 -41 55 -9 103 -18 107 -20 25
-16 507 -50 689 -49 54 0 423 14 510 18 254 15 306 19 313 26 5 4 -11 11 -35
15 -23 4 -79 16 -123 27 -86 21 -152 33 -280 48 -145 17 -170 21 -185 26 -21
8 -328 56 -505 79 -16 3 -64 9 -105 15 -41 6 -97 13 -124 16 -27 3 -52 7 -56
9 -3 2 -30 6 -59 10 -66 7 -251 40 -411 71 -312 63 -399 82 -460 101 -46 15
-146 39 -215 52 -22 4 -49 12 -60 18 -11 6 -38 13 -60 17 -22 4 -62 14 -90 22
-27 8 -81 24 -120 36 -38 11 -79 24 -90 29 -11 5 -45 15 -75 23 -84 21 -173
48 -190 57 -8 4 -50 18 -93 30 -68 20 -82 28 -107 62 -40 54 -75 73 -130 69z
m30 -317 c0 -2 -10 -10 -22 -16 -21 -11 -22 -11 -9 4 13 16 31 23 31 12z"/>
<path d="M7963 13136 c21 -20 48 -41 60 -47 12 -6 4 6 -18 25 -54 49 -90 67
-42 22z"/>
<path d="M4986 26549 c-14 -11 -24 -24 -21 -29 3 -5 -1 -12 -9 -17 -8 -4 -23
-42 -34 -83 -35 -128 -118 -334 -171 -420 -17 -28 -31 -55 -31 -60 0 -7 -82
-151 -118 -206 -137 -213 -324 -398 -544 -541 -41 -27 -285 -148 -317 -158
-46 -14 -88 -45 -106 -79 -16 -30 -17 -40 -6 -92 17 -87 30 -96 154 -105 147
-10 257 -43 352 -104 48 -31 137 -114 175 -164 19 -26 45 -58 58 -72 22 -25
29 -36 94 -159 19 -36 40 -74 46 -85 40 -68 138 -325 163 -425 10 -41 23 -93
28 -115 6 -22 22 -118 36 -214 14 -96 32 -189 40 -207 31 -75 131 -84 211 -19
25 20 43 40 40 43 -4 3 0 15 8 27 8 12 21 44 29 72 47 157 242 558 349 714 21
31 38 59 38 63 0 9 84 130 179 256 103 137 268 305 354 361 34 22 112 65 173
95 106 52 113 54 170 48 66 -7 115 10 144 50 58 81 -10 194 -108 181 -152 -20
-170 -19 -230 11 -31 15 -59 31 -62 34 -3 3 -30 18 -60 35 -30 16 -73 42 -95
57 -22 16 -51 36 -65 45 -182 122 -345 293 -446 469 -48 84 -145 306 -146 337
-1 12 -5 27 -9 32 -12 16 -46 165 -59 256 -14 99 -41 161 -76 177 -40 19 -98
15 -128 -9z"/>
<path d="M6934 25110 c-140 -5 -153 -7 -187 -30 -43 -30 -48 -46 -38 -128 16
-131 62 -144 536 -146 142 -1 188 10 225 49 13 14 35 25 50 25 33 0 96 61 101
98 8 57 -17 107 -56 114 -11 2 -23 8 -27 13 -8 11 -345 14 -604 5z"/>
<path d="M3020 25019 c-91 -4 -199 -11 -240 -17 -41 -6 -102 -14 -135 -17 -75
-8 -102 -25 -126 -79 -22 -51 -16 -79 19 -94 22 -9 23 -11 5 -8 -19 3 -21 1
-13 -15 22 -40 65 -48 290 -53 220 -5 287 1 302 28 6 11 24 16 54 16 68 0 133
20 150 45 8 12 13 37 12 56 -1 19 2 42 6 51 10 22 -56 93 -78 85 -7 -3 -29 -2
-47 1 -19 4 -108 4 -199 1z"/>
<path d="M4959 22714 c-45 -19 -58 -46 -70 -148 -5 -45 -18 -128 -29 -185 -11
-58 -18 -107 -15 -109 2 -3 0 -12 -4 -21 -12 -21 -25 -189 -26 -321 0 -81 4
-113 18 -143 11 -22 23 -35 29 -31 7 5 9 1 5 -9 -4 -11 -1 -17 8 -17 8 0 15
-4 15 -9 0 -5 17 -12 38 -16 59 -10 132 37 132 86 0 9 9 27 19 40 18 24 22 48
36 219 19 231 26 535 13 588 -8 32 -20 49 -47 68 -41 27 -70 29 -122 8z"/>
<path d="M29095 10180 c-61 -24 -68 -86 -67 -590 1 -462 3 -478 61 -517 63
-43 135 -24 167 44 14 29 16 60 9 236 -4 111 -8 243 -10 292 -11 340 -28 474
-67 510 -27 26 -65 37 -93 25z"/>
<path d="M29081 8677 c-22 -25 -34 -78 -45 -212 -12 -143 -76 -407 -123 -512
-12 -28 -23 -58 -23 -65 0 -8 -7 -23 -15 -34 -8 -10 -15 -26 -15 -34 -1 -8 -9
-31 -20 -50 -10 -19 -30 -57 -43 -85 -13 -27 -43 -77 -66 -110 -23 -33 -53
-76 -66 -95 -51 -76 -218 -237 -375 -363 -139 -112 -167 -138 -180 -174 -8
-23 -32 -57 -53 -75 -45 -39 -59 -80 -43 -128 11 -35 25 -42 97 -54 23 -4 39
-13 41 -24 3 -9 36 -33 74 -52 178 -91 276 -160 395 -280 102 -103 235 -286
298 -412 18 -35 40 -79 50 -98 24 -45 91 -221 91 -238 0 -7 5 -23 12 -35 6
-12 13 -29 13 -37 1 -8 8 -35 15 -60 8 -25 14 -48 14 -52 1 -3 4 -10 9 -14 4
-4 7 -14 7 -23 0 -9 7 -29 15 -45 8 -15 15 -35 15 -42 0 -8 16 -46 35 -84 37
-74 69 -100 124 -100 85 0 120 55 127 202 2 49 7 95 11 102 4 6 8 13 8 16 14
101 18 127 25 144 4 12 13 41 20 66 27 98 101 308 125 354 14 27 25 54 25 60
1 23 177 360 216 413 13 17 24 34 24 38 0 21 138 188 190 228 19 15 42 33 50
40 30 24 125 82 162 99 43 19 68 61 68 116 0 29 -8 47 -33 75 -18 20 -36 37
-40 37 -4 0 -32 18 -62 40 -30 22 -57 40 -60 40 -10 0 -180 139 -265 217 -135
124 -321 364 -401 518 -87 166 -106 204 -122 245 -10 25 -25 59 -33 75 -22 46
-60 188 -84 316 -27 143 -45 169 -119 169 -37 0 -52 -5 -70 -23z m229 -3557
c0 -5 -4 -10 -10 -10 -5 0 -10 5 -10 10 0 6 5 10 10 10 6 0 10 -4 10 -10z"/>
<path d="M31087 7044 c-1 -1 -58 -4 -127 -8 -231 -12 -320 -25 -320 -47 0 -5
-7 -9 -16 -9 -10 0 -14 -5 -10 -16 3 -8 2 -13 -3 -10 -4 3 -13 -6 -20 -20 -18
-41 3 -85 52 -109 38 -19 63 -20 411 -20 l371 0 33 23 c17 13 37 33 43 44 33
61 -9 149 -78 164 -30 6 -329 13 -336 8z m398 -134 c3 -5 1 -10 -4 -10 -6 0
-11 5 -11 10 0 6 2 10 4 10 3 0 8 -4 11 -10z"/>
<path d="M27218 6885 c-2 -2 -35 -5 -73 -6 -91 -3 -136 -15 -169 -45 -21 -20
-26 -34 -26 -74 0 -46 2 -51 38 -74 50 -32 99 -36 513 -38 346 -2 346 -2 374
21 71 55 68 167 -4 202 -19 9 -111 13 -338 15 -171 1 -313 0 -315 -1z"/>
<path d="M29312 4833 c-10 -16 -24 -50 -31 -78 -7 -27 -16 -67 -22 -87 -24
-91 -50 -661 -35 -772 4 -29 27 -54 77 -81 58 -32 144 21 164 100 4 17 8 162
10 323 2 223 0 302 -10 325 -7 18 -16 60 -19 94 -16 155 -36 203 -86 203 -20
0 -34 -8 -48 -27z"/>
</g>
</svg>
